Follow an aimless college grad who pursues his dream girl at a wild Labor Day weekend party. He, his twin sister and their best friend struggle with their burgeoning adulthood over the course of the night.

Director:
Michael Dowse
Writers:
Jackie Filgo (screenplay), Jeff Filgo (screenplay), and 2 more credits »
Stars:
Topher Grace, Anna Faris and Dan Fogler 

Media info

General
Complete name                    : E:\torrent2\Take.Me.Home.Tonight.2011.BluRay rip.MKV.1080p.AVC.DTS 5.1-ACB-Team\Take.Me.Home.Tonight.2011.BluRay rip.MKV.1080p.AVC.DTS 5.1-ACB-Team.mkv
Format                           : Matroska
File size                        : 9.72 GiB
Duration                         : 1h 37mn
Overall bit rate                 : 14.3 Mbps
Movie name                       : movie
Encoded date                     : UTC 2011-07-10 09:31:01
Writing application              : mkvmerge v3.2.0 ('Beginnings') built on Feb 12 2010 16:46:17
Writing library                  : libebml v0.7.9 + libmatroska v0.8.1

Video
ID                               : 1
Format                           : AVC
Format/Info                      : Advanced Video Codec
Format profile                   : High@L4.1
Format settings, CABAC           : Yes
Format settings, ReFrames        : 2 frames
Muxing mode                      : Container profile=Unknown@0.0
Codec ID                         : V_MPEG4/ISO/AVC
Duration                         : 1h 37mn
Bit rate mode                    : Variable
Bit rate                         : 12.9 Mbps
Maximum bit rate                 : 35.0 Mbps
Width                            : 1 920 pixels
Height                           : 1 080 pixels
Display aspect ratio             : 16:9
Frame rate                       : 23.976 fps
Color space                      : YUV
Chroma subsampling               : 4:2:0
Bit depth                        : 8 bits
Scan type                        : Progressive
Bits/(Pixel*Frame)               : 0.260
Stream size                      : 8.50 GiB (87%)
Writing library                  : x264 core 115 r1995 c1e60b9
Encoding settings                : cabac=1 / ref=1 / deblock=1:0:0 / analyse=0x3:0x3 / me=dia / subme=1 / psy=1 / psy_rd=1.00:0.00 / mixed_ref=0 / me_range=16 / chroma_me=1 / trellis=0 / 8x8dct=1 / cqm=0 / deadzone=21,11 / fast_pskip=1 / chroma_qp_offset=0 / threads=3 / sliced_threads=0 / slices=4 / nr=0 / decimate=1 / interlaced=0 / bluray_compat=1 / constrained_intra=0 / bframes=3 / b_pyramid=0 / b_adapt=1 / b_bias=0 / direct=1 / weightb=1 / open_gop=0 / weightp=1 / keyint=24 / keyint_min=1 / scenecut=40 / intra_refresh=0 / rc_lookahead=0 / rc=abr / mbtree=0 / bitrate=12919 / ratetol=1.0 / qcomp=0.60 / qpmin=0 / qpmax=69 / qpstep=4 / vbv_maxrate=35000 / vbv_bufsize=30000 / nal_hrd=vbr / ip_ratio=1.10 / pb_ratio=1.10 / aq=1:1.00

Audio
ID                               : 2
Format                           : DTS
Format/Info                      : Digital Theater Systems
Codec ID                         : A_DTS
Duration                         : 1h 37mn
Bit rate mode                    : Constant
Bit rate                         : 1 510 Kbps
Channel(s)                       : 6 channels
Channel positions                : Front: L C R, Side: L R, LFE
Sampling rate                    : 48.0 KHz
Bit depth                        : 24 bits
Stream size                      : 1.03 GiB (11%)
Language                         : English

Text #1
ID                               : 3
Format                           : VobSub
Muxing mode                      : zlib
Codec ID                         : S_VOBSUB
Codec ID/Info                    : The same subtitle format used on DVDs
Language                         : English

Text #2
ID                               : 4
Format                           : VobSub
Muxing mode                      : zlib
Codec ID                         : S_VOBSUB
Codec ID/Info                    : The same subtitle format used on DVDs
Language                         : Spanish

Text #3
ID                               : 5
Format                           : VobSub
Muxing mode                      : zlib
Codec ID                         : S_VOBSUB
Codec ID/Info                    : The same subtitle format used on DVDs
Language                         : French

Text #4
ID                               : 6
Format                           : UTF-8
Codec ID                         : S_TEXT/UTF8
Codec ID/Info                    : UTF-8 Plain Text
Language                         : Dutch

Menu
00:00:00.000                     : en:00:00:00.000
00:03:12.942                     : en:00:03:12.942
00:08:50.488                     : en:00:08:50.488
00:12:17.153                     : en:00:12:17.153
00:14:51.515                     : en:00:14:51.515
00:19:31.170                     : en:00:19:31.170
00:23:37.082                     : en:00:23:37.082
00:26:59.784                     : en:00:26:59.784
00:30:30.745                     : en:00:30:30.745
00:34:19.307                     : en:00:34:19.307
00:39:25.196                     : en:00:39:25.196
00:44:10.606                     : en:00:44:10.606
00:48:59.853                     : en:00:48:59.853
00:53:35.503                     : en:00:53:35.503
00:58:41.768                     : en:00:58:41.768
01:05:52.907                     : en:01:05:52.907
01:08:13.589                     : en:01:08:13.589
01:12:58.916                     : en:01:12:58.916
01:16:16.655                     : en:01:16:16.655
01:19:13.707                     : en:01:19:13.707
01:23:26.126                     : en:01:23:26.126
01:26:47.702                     : en:01:26:47.702
01:32:04.143                     : en:01:32:04.143

